<svg width="17" height="17" viewBox="0 0 17 17" fill="none" xmlns="http://www.w3.org/2000/svg">
<path d="M10.1104 1.02393C8.34747 -0.338884 6.45248 -0.0879788 4.8348 0.33856C3.60933 0.662095 2.53836 1.27219 1.7381 2.10414C0.326431 3.56995 -0.290267 5.70001 0.129668 7.65971C0.554887 9.64978 2.05636 11.3573 3.95399 12.0083C4.61823 12.2367 5.37226 12.3569 6.19893 12.3648C6.22138 12.3648 6.24383 12.3648 6.26496 12.3648C7.31084 12.3648 8.24051 12.1786 9.02756 11.8128C9.47522 11.6042 9.88592 11.319 10.2623 10.9835C12.0556 12.5233 13.7631 14.1832 15.3226 15.9501C15.4534 16.0967 15.6356 16.1733 15.8178 16.1733C15.9737 16.1733 16.1295 16.1192 16.2549 16.0082C16.5283 15.7666 16.5547 15.3493 16.313 15.0759C14.7178 13.2694 12.9707 11.5699 11.1352 9.99312C11.8918 8.92612 12.3606 7.58179 12.3884 6.16484C12.4293 4.11138 11.5564 2.14244 10.1104 1.02393ZM8.47028 10.6151C7.84566 10.9056 7.06125 11.0271 6.21082 11.043C5.52809 11.0364 4.91403 10.9413 4.38317 10.759C2.91472 10.2559 1.75131 8.93008 1.41985 7.38371C1.09631 5.86904 1.59416 4.15628 2.6889 3.01928C3.33069 2.3524 4.16528 1.88097 5.17022 1.61553C5.85295 1.43594 6.48549 1.31709 7.08106 1.31709C7.87075 1.31709 8.59838 1.52442 9.30091 2.06716C10.4234 2.93477 11.0995 4.49434 11.0678 6.13579C11.0295 8.11134 9.98628 9.90993 8.47028 10.6151Z" fill="#FBFBFB"/>
</svg>
