<svg width="251" height="44" viewBox="0 0 251 44" fill="none" xmlns="http://www.w3.org/2000/svg">
<path d="M14.736 35.24C13.776 35.24 13.008 34.968 12.432 34.424C11.888 33.848 11.616 33.096 11.616 32.168V6.248H2.88C0.96 6.248 0 5.4 0 3.704C0 2.008 0.96 1.16 2.88 1.16H26.544C28.464 1.16 29.424 2.008 29.424 3.704C29.424 5.4 28.464 6.248 26.544 6.248H17.808V32.168C17.808 33.096 17.52 33.848 16.944 34.424C16.4 34.968 15.664 35.24 14.736 35.24ZM45.2715 11.048C46.1035 10.984 46.7595 11.16 47.2395 11.576C47.7195 11.992 47.9595 12.616 47.9595 13.448C47.9595 14.312 47.7515 14.952 47.3355 15.368C46.9195 15.784 46.1675 16.056 45.0795 16.184L43.6395 16.328C41.7515 16.52 40.3595 17.16 39.4635 18.248C38.5995 19.336 38.1675 20.696 38.1675 22.328V32.408C38.1675 33.336 37.8795 34.056 37.3035 34.568C36.7275 35.048 36.0075 35.288 35.1435 35.288C34.2795 35.288 33.5595 35.048 32.9835 34.568C32.4395 34.056 32.1675 33.336 32.1675 32.408V13.832C32.1675 12.936 32.4395 12.248 32.9835 11.768C33.5595 11.288 34.2635 11.048 35.0955 11.048C35.9275 11.048 36.5995 11.288 37.1115 11.768C37.6235 12.216 37.8795 12.872 37.8795 13.736V15.656C38.4875 14.248 39.3835 13.16 40.5675 12.392C41.7835 11.624 43.1275 11.192 44.5995 11.096L45.2715 11.048ZM99.5524 12.776C99.8084 12.2 100.144 11.768 100.56 11.48C101.008 11.192 101.488 11.048 102 11.048C102.736 11.048 103.392 11.304 103.968 11.816C104.576 12.296 104.88 12.904 104.88 13.64C104.88 14.024 104.784 14.408 104.592 14.792L95.7124 33.368C95.4244 33.976 95.0084 34.44 94.4644 34.76C93.9524 35.08 93.3764 35.24 92.7364 35.24C92.1284 35.24 91.5364 35.08 90.9604 34.76C90.4164 34.44 90.0004 33.976 89.7124 33.368L80.7844 14.792C80.6244 14.472 80.5444 14.104 80.5444 13.688C80.5444 12.952 80.8484 12.328 81.4564 11.816C82.0964 11.304 82.8164 11.048 83.6164 11.048C84.7684 11.048 85.6164 11.608 86.1604 12.728L92.8804 27.56L99.5524 12.776ZM130.011 28.568C130.555 28.568 130.987 28.776 131.307 29.192C131.659 29.608 131.835 30.168 131.835 30.872C131.835 31.864 131.243 32.696 130.059 33.368C128.971 33.976 127.739 34.472 126.363 34.856C124.987 35.208 123.675 35.384 122.427 35.384C118.651 35.384 115.659 34.296 113.451 32.12C111.243 29.944 110.139 26.968 110.139 23.192C110.139 20.792 110.619 18.664 111.579 16.808C112.539 14.952 113.883 13.512 115.611 12.488C117.371 11.464 119.355 10.952 121.563 10.952C123.675 10.952 125.515 11.416 127.083 12.344C128.651 13.272 129.867 14.584 130.731 16.28C131.595 17.976 132.027 19.976 132.027 22.28C132.027 23.656 131.419 24.344 130.203 24.344H116.043C116.235 26.552 116.859 28.184 117.915 29.24C118.971 30.264 120.507 30.776 122.523 30.776C123.547 30.776 124.443 30.648 125.211 30.392C126.011 30.136 126.907 29.784 127.899 29.336C128.859 28.824 129.563 28.568 130.011 28.568ZM121.707 15.176C120.075 15.176 118.763 15.688 117.771 16.712C116.811 17.736 116.235 19.208 116.043 21.128H126.891C126.827 19.176 126.347 17.704 125.451 16.712C124.555 15.688 123.307 15.176 121.707 15.176ZM143.271 35.288C142.407 35.288 141.687 35.048 141.111 34.568C140.567 34.056 140.295 33.336 140.295 32.408V3.752C140.295 2.824 140.567 2.12 141.111 1.64C141.687 1.16 142.407 0.919998 143.271 0.919998C144.135 0.919998 144.855 1.16 145.431 1.64C146.007 2.12 146.295 2.824 146.295 3.752V32.408C146.295 33.336 146.007 34.056 145.431 34.568C144.855 35.048 144.135 35.288 143.271 35.288ZM208.316 10.952C210.332 10.952 212.124 11.464 213.692 12.488C215.292 13.512 216.524 14.968 217.388 16.856C218.284 18.712 218.732 20.856 218.732 23.288C218.732 25.72 218.284 27.848 217.388 29.672C216.524 31.496 215.308 32.904 213.74 33.896C212.172 34.888 210.364 35.384 208.316 35.384C206.652 35.384 205.164 35.032 203.852 34.328C202.54 33.624 201.532 32.648 200.828 31.4V41.192C200.828 42.024 200.556 42.68 200.012 43.16C199.468 43.64 198.748 43.88 197.852 43.88C196.956 43.88 196.22 43.624 195.644 43.112C195.1 42.6 194.828 41.928 194.828 41.096V13.88C194.828 13.016 195.084 12.328 195.596 11.816C196.14 11.304 196.86 11.048 197.756 11.048C198.652 11.048 199.372 11.304 199.916 11.816C200.46 12.328 200.732 13.016 200.732 13.88V15.08C201.436 13.768 202.444 12.76 203.756 12.056C205.1 11.32 206.62 10.952 208.316 10.952ZM206.732 30.728C208.62 30.728 210.092 30.088 211.148 28.808C212.204 27.496 212.732 25.656 212.732 23.288C212.732 20.856 212.204 18.968 211.148 17.624C210.092 16.28 208.62 15.608 206.732 15.608C204.812 15.608 203.324 16.264 202.268 17.576C201.244 18.888 200.732 20.76 200.732 23.192C200.732 25.592 201.244 27.448 202.268 28.76C203.324 30.072 204.812 30.728 206.732 30.728ZM240.504 10.952C242.52 10.952 244.312 11.464 245.88 12.488C247.48 13.512 248.712 14.968 249.576 16.856C250.472 18.712 250.92 20.856 250.92 23.288C250.92 25.72 250.472 27.848 249.576 29.672C248.712 31.496 247.496 32.904 245.928 33.896C244.36 34.888 242.552 35.384 240.504 35.384C238.84 35.384 237.352 35.032 236.04 34.328C234.728 33.624 233.72 32.648 233.016 31.4V41.192C233.016 42.024 232.744 42.68 232.2 43.16C231.656 43.64 230.936 43.88 230.04 43.88C229.144 43.88 228.408 43.624 227.832 43.112C227.288 42.6 227.016 41.928 227.016 41.096V13.88C227.016 13.016 227.272 12.328 227.784 11.816C228.328 11.304 229.048 11.048 229.944 11.048C230.84 11.048 231.56 11.304 232.104 11.816C232.648 12.328 232.92 13.016 232.92 13.88V15.08C233.624 13.768 234.632 12.76 235.944 12.056C237.288 11.32 238.808 10.952 240.504 10.952ZM238.92 30.728C240.808 30.728 242.28 30.088 243.336 28.808C244.392 27.496 244.92 25.656 244.92 23.288C244.92 20.856 244.392 18.968 243.336 17.624C242.28 16.28 240.808 15.608 238.92 15.608C237 15.608 235.512 16.264 234.456 17.576C233.432 18.888 232.92 20.76 232.92 23.192C232.92 25.592 233.432 27.448 234.456 28.76C235.512 30.072 237 30.728 238.92 30.728Z" fill="#FBFBFB"/>
<path d="M64.0785 10.952C67.3425 10.952 69.7585 11.768 71.3265 13.4C72.9265 15 73.7265 17.448 73.7265 20.744V32.456C73.7265 33.32 73.4705 34.008 72.9585 34.52C72.4465 35 71.7425 35.24 70.8465 35.24C70.0145 35.24 69.3265 34.984 68.7825 34.472C68.2705 33.96 68.0145 33.288 68.0145 32.456V31.4C67.4705 32.648 66.6065 33.624 65.4225 34.328C64.2705 35.032 62.9265 35.384 61.3905 35.384C59.8225 35.384 58.3985 35.064 57.1185 34.424C55.8385 33.784 54.8305 32.904 54.0945 31.784C53.3585 30.664 52.9905 29.416 52.9905 28.04C52.9905 26.312 53.4225 24.952 54.2865 23.96C55.1825 22.968 56.6225 22.248 58.6065 21.8C60.5905 21.352 63.3265 21.128 66.8145 21.128H68.0145V20.024C68.0145 18.456 67.6785 17.32 67.0065 16.616C66.3345 15.88 65.2465 15.512 63.7425 15.512C62.8145 15.512 61.8705 15.656 60.9105 15.944C59.9505 16.2 58.8145 16.584 57.5025 17.096C56.6705 17.512 56.0625 17.72 55.6785 17.72C55.1025 17.72 54.6225 17.512 54.2385 17.096C53.8865 16.68 53.7105 16.136 53.7105 15.464C53.7105 14.92 53.8385 14.456 54.0945 14.072C54.3825 13.656 54.8465 13.272 55.4865 12.92C56.6065 12.312 57.9345 11.832 59.4705 11.48C61.0385 11.128 62.5745 10.952 64.0785 10.952ZM62.5905 31.064C64.1905 31.064 65.4865 30.536 66.4785 29.48C67.5025 28.392 68.0145 27 68.0145 25.304V24.296H67.1505C65.0065 24.296 63.3425 24.392 62.1585 24.584C60.9745 24.776 60.1265 25.112 59.6145 25.592C59.1025 26.072 58.8465 26.728 58.8465 27.56C58.8465 28.584 59.1985 29.432 59.9025 30.104C60.6385 30.744 61.5345 31.064 62.5905 31.064ZM187.043 31.304C187.235 31.72 187.331 32.136 187.331 32.552C187.331 33.288 187.027 33.912 186.419 34.424C185.843 34.936 185.171 35.192 184.403 35.192C183.891 35.192 183.411 35.064 182.963 34.808C182.515 34.52 182.163 34.088 181.907 33.512L179.027 27.08H162.131L159.251 33.512C158.995 34.088 158.643 34.52 158.195 34.808C157.747 35.064 157.251 35.192 156.707 35.192C155.971 35.192 155.299 34.936 154.691 34.424C154.083 33.912 153.779 33.288 153.779 32.552C153.779 32.136 153.875 31.72 154.067 31.304L167.315 2.84C167.603 2.2 168.035 1.72 168.611 1.4C169.219 1.048 169.859 0.871999 170.531 0.871999C171.203 0.871999 171.827 1.048 172.403 1.4C173.011 1.72 173.459 2.2 173.747 2.84L187.043 31.304ZM164.243 22.28H176.915L170.579 8.024L164.243 22.28Z" fill="#5BBB76"/>
</svg>
