<svg width="22" height="22" viewBox="0 0 22 22" fill="none" xmlns="http://www.w3.org/2000/svg">
<g clip-path="url(#clip0)">
<path d="M5.03596 12.4244L14.005 21.3935C14.8138 22.2022 16.2105 22.2022 16.9457 21.3935C17.7544 20.5847 17.7544 19.2615 16.9457 18.4528L9.52048 10.954L16.9457 3.52882C17.7544 2.72011 17.7544 1.3968 16.9457 0.588129C16.5781 0.220531 15.99 1.52588e-05 15.4754 1.52588e-05C14.9608 1.52588e-05 14.3726 0.220531 14.005 0.588171L5.03596 9.48373C4.66837 9.85133 4.44781 10.4394 4.44781 10.9541C4.44781 11.4687 4.66837 12.0568 5.03596 12.4244ZM6.0652 10.513L14.9608 1.61736C15.1813 1.39684 15.6224 1.39684 15.8429 1.61736C16.0635 1.83788 16.0635 2.27904 15.8429 2.49955L7.9031 10.4394C7.60902 10.7335 7.60902 11.1746 7.9031 11.4686L15.9165 19.4085C16.137 19.7026 16.137 20.0702 15.9165 20.2907C15.7694 20.4377 15.6224 20.5112 15.4754 20.5112C15.3283 20.5112 15.1813 20.4377 15.0342 20.2907L6.06515 11.3216C5.91811 11.1746 5.84464 11.0275 5.84464 10.8805C5.91815 10.807 5.99168 10.5864 6.0652 10.513Z" fill="#FBFBFB"/>
</g>
<defs>
<clipPath id="clip0">
<rect width="22" height="22" fill="white" transform="translate(22 22) rotate(-180)"/>
</clipPath>
</defs>
</svg>
