<svg width="22" height="22" viewBox="0 0 22 22" fill="none" xmlns="http://www.w3.org/2000/svg">
<path d="M16.964 9.57562L7.99495 0.606536C7.18624 -0.202179 5.78945 -0.202179 5.05426 0.606536C4.24559 1.41525 4.24559 2.73852 5.05426 3.54723L12.4795 11.046L5.0543 18.4712C4.24563 19.2799 4.24563 20.6032 5.0543 21.4119C5.4219 21.7795 6.01001 22 6.52461 22C7.0392 22 7.6274 21.7795 7.99495 21.4118L16.964 12.5163C17.3316 12.1487 17.5522 11.5606 17.5522 11.0459C17.5522 10.5313 17.3316 9.94321 16.964 9.57562ZM15.9348 11.487L7.03924 20.3826C6.81868 20.6032 6.37761 20.6032 6.15705 20.3826C5.93649 20.1621 5.93649 19.721 6.15705 19.5005L14.0969 11.5606C14.391 11.2665 14.391 10.8254 14.0969 10.5314L6.08353 2.59152C5.86297 2.29744 5.86297 1.92984 6.08353 1.70933C6.23057 1.56229 6.37761 1.48881 6.52465 1.48881C6.67169 1.48881 6.81873 1.56229 6.96577 1.70933L15.9348 10.6784C16.0819 10.8254 16.1554 10.9725 16.1554 11.1195C16.0818 11.193 16.0083 11.4136 15.9348 11.487Z" fill="#FBFBFB"/>
</svg>
